<svg xmlns="http://www.w3.org/2000/svg" viewBox="0 0 297 78.31"><title>Asset 10</title><g id="Layer_2" data-name="Layer 2"><g id="Layer_1-2" data-name="Layer 1"><path d="M147,34.11a8.06,8.06,0,0,0-2.72-6.43,11,11,0,0,0-7.45-2.35h-18.6V57.76h4V43.57h15.1a9.5,9.5,0,0,0,7-2.62A9.23,9.23,0,0,0,147,34.11Zm-5.8,4.32a6.92,6.92,0,0,1-4.63,1.35H122.28V29.06H136.8a6.35,6.35,0,0,1,4.42,1.43,5.1,5.1,0,0,1,1.57,4A4.94,4.94,0,0,1,141.22,38.43Z" style="fill:#fff"/><polygon points="155.8 25.33 139.91 57.76 144.23 57.76 148.52 49.03 150.37 45.24 157.48 30.88 164.65 45.24 148.53 45.24 146.66 49.03 166.44 49.03 170.85 57.76 175.22 57.76 159.15 25.33 155.8 25.33" style="fill:#fff"/><path d="M204.74,40.38a9.07,9.07,0,0,0,2.12-6,8.39,8.39,0,0,0-2.7-6.62,10.86,10.86,0,0,0-7.46-2.39h-18.6V57.76h4V43.57h12.57l8.11,14.19h4.47l-8.11-14.25A9.13,9.13,0,0,0,204.74,40.38Zm-22.62-.6V29.06h14.51a6.35,6.35,0,0,1,4.42,1.43,5.1,5.1,0,0,1,1.57,4,4.94,4.94,0,0,1-1.57,4,6.92,6.92,0,0,1-4.63,1.35Z" style="fill:#fff"/><path d="M292.21,29.44a17.49,17.49,0,0,0-24.09,0,16.62,16.62,0,0,0-4.76,12.21,16.61,16.61,0,0,0,4.74,12.18,17.54,17.54,0,0,0,24.12,0A16.56,16.56,0,0,0,297,41.63,16.58,16.58,0,0,0,292.21,29.44Zm-3,21.65a12.84,12.84,0,0,1-18.1,0,13.1,13.1,0,0,1-3.58-9.46,13.15,13.15,0,0,1,3.58-9.47,12.84,12.84,0,0,1,18.11,0,13.17,13.17,0,0,1,3.57,9.49A13.1,13.1,0,0,1,289.19,51.09Z" style="fill:#fff"/><polygon points="214.56 42.31 227.54 42.31 227.54 38.58 214.56 38.58 214.56 29.06 230.49 29.06 234.62 25.33 236.03 25.33 235.39 25.33 210.53 25.33 210.53 57.76 237.35 57.76 237.35 54.03 214.56 54.03 214.56 42.31" style="fill:#fff"/><polygon points="264.21 25.33 238.4 25.33 234.27 29.06 246.5 29.06 246.5 57.76 250.55 57.76 250.55 29.06 264.21 29.06 264.21 25.33" style="fill:#fff"/><path d="M32.07,57.75H93.66a4.17,4.17,0,0,0,4.17-4.17V1.23A1.23,1.23,0,0,0,95.77.32Z" style="fill:#fff"/><path id="_Path_" data-name="&lt;Path&gt;" d="M2.06,78,24.5,57.75l7.57-6.82H4.17A4.17,4.17,0,0,0,0,55.09v22A1.23,1.23,0,0,0,2.06,78Z" style="fill:#fff"/></g></g></svg>