<?xml version="1.0" standalone="no"?>
<!DOCTYPE svg PUBLIC "-//W3C//DTD SVG 20010904//EN"
 "http://www.w3.org/TR/2001/REC-SVG-20010904/DTD/svg10.dtd">
<svg version="1.0" xmlns="http://www.w3.org/2000/svg"
 width="1100.000000pt" height="1100.000000pt" viewBox="0 0 1100.000000 1100.000000"
 preserveAspectRatio="xMidYMid meet">
<metadata>
Created by potrace 1.11, written by Peter Selinger 2001-2013
</metadata>
<g transform="translate(0.000000,1100.000000) scale(0.100000,-0.100000)"
fill="#000000" stroke="none">
<path d="M10811 9889 c-25 -10 -56 -35 -152 -123 -30 -28 -88 -80 -128 -116
-40 -36 -83 -74 -95 -85 -75 -67 -206 -186 -244 -220 -25 -22 -57 -51 -72 -65
-14 -14 -64 -59 -111 -100 -46 -41 -86 -77 -89 -80 -3 -3 -48 -43 -100 -90
-52 -47 -97 -87 -100 -90 -3 -3 -45 -41 -95 -85 -49 -44 -92 -83 -95 -86 -3
-3 -77 -70 -165 -149 -88 -79 -165 -149 -171 -155 -6 -5 -47 -41 -90 -80 -43
-38 -92 -83 -109 -99 -16 -15 -59 -54 -95 -86 -36 -32 -77 -69 -91 -81 -14
-13 -61 -55 -104 -94 -43 -38 -93 -83 -111 -100 -17 -16 -60 -55 -94 -85 -35
-30 -68 -60 -74 -65 -6 -6 -63 -57 -126 -114 -63 -57 -138 -125 -165 -150 -28
-25 -86 -77 -130 -116 -43 -38 -83 -75 -89 -80 -19 -19 -129 -118 -210 -190
-43 -38 -92 -83 -110 -100 -18 -16 -48 -44 -67 -60 -19 -17 -79 -71 -134 -120
-55 -50 -115 -104 -134 -120 -18 -17 -45 -41 -60 -55 -14 -14 -64 -59 -111
-100 -46 -41 -91 -82 -100 -90 -24 -22 -182 -166 -206 -187 -51 -44 -471 -423
-623 -561 -14 -13 -53 -47 -85 -75 -33 -29 -73 -65 -91 -82 -17 -16 -69 -64
-115 -105 -47 -41 -94 -84 -106 -95 -23 -21 -164 -148 -197 -177 -52 -46 -178
-159 -232 -209 -33 -31 -80 -73 -105 -95 -25 -21 -47 -42 -50 -45 -3 -3 -75
-68 -160 -144 -85 -76 -162 -146 -171 -154 -9 -9 -49 -45 -89 -81 -41 -36 -81
-72 -89 -80 -9 -9 -56 -52 -105 -95 -50 -44 -97 -87 -106 -95 -9 -8 -54 -49
-100 -90 -46 -41 -97 -87 -112 -101 -16 -15 -57 -51 -91 -82 -34 -30 -74 -65
-88 -78 -58 -53 -187 -169 -206 -187 -12 -10 -57 -50 -100 -89 -43 -39 -96
-87 -118 -107 l-40 -36 3490 0 c3848 0 3541 -5 3666 62 104 55 205 188 227
300 4 18 7 1386 7 3040 l0 3006 -25 27 c-48 51 -103 67 -159 44z"/>
<path d="M375 4167 c-121 -21 -258 -122 -317 -233 -59 -110 -56 -47 -57 -1438
-1 -937 2 -1287 10 -1310 16 -44 63 -78 113 -83 66 -8 59 -13 342 244 43 39
88 80 100 90 31 26 181 162 223 202 20 18 60 54 89 79 29 25 65 57 80 71 35
33 194 177 224 203 19 16 167 151 202 183 6 6 74 66 151 135 77 68 142 127
145 130 3 4 50 47 105 96 115 102 166 148 205 184 15 14 63 57 106 95 43 39
85 77 94 85 9 8 56 51 105 95 49 44 97 87 105 95 22 20 83 75 155 140 71 63
198 177 240 215 17 15 48 44 70 64 22 20 63 56 91 81 27 25 90 81 139 125 49
44 101 91 116 105 15 14 55 50 90 82 35 31 85 76 111 100 26 23 79 70 117 103
38 33 70 63 70 66 1 10 -3169 6 -3224 -4z"/>
</g>
</svg>
